{"title":"Shrek Forever After(2010)1080p BDRip[Hindi-Eng]AC3-DGrea8","uid":8002696,"size":2411933396,"categoryP":"video","categoryS":"hd___movies","magnet":"?xt=urn:btih:a232800e4168e49c42f7ee011d7eec857807a64d&amp;dn=Shrek+Forever+After%282010%291080p+BDRip%5BHindi-Eng%5DAC3-DGrea8&amp;tr=udp%3A%2F%2Ftracker.openbittorrent.com%3A80&amp;tr=udp%3A%2F%2Fopen.demonii.com%3A1337&amp;tr=udp%3A%2F%2Ftracker.coppersurfer.tk%3A6969&amp;tr=udp%3A%2F%2Fexodus.desync.com%3A6969","seeders":1,"leechers":0,"uploader":"DGrea8","files":-1,"time":1357815278,"description":" \n        Shrek Forever After (2010)1080p BDRip In[Hindi-Eng]AC3-DGrea8\n\n\nSummary:-\n\nA bored and domesticated Shrek pacts with deal-maker Rumpelstiltskin to get\nback to feeling like a real ogre again, but when he's duped and sent to a twisted\nversion of Far Far Away -- where Rumpelstiltskin is king, ogres are hunted,\nand he and Fiona have never met -- he sets out to restore his world and\nreclaim his true love.\n\nCast:-\n\nMike Myers\t ...\tShrek (voice)\nEddie Murphy\t ...\tDonkey (voice)\nCameron Diaz\t ...\tPrincess Fiona (voice)\nAntonio Banderas ...\tPuss in Boots (voice)\nJulie Andrews\t ...\tQueen (voice)\nJon Hamm\t ...\tBrogan (voice)\nJohn Cleese\t ...\tKing Harold (voice)\nCraig Robinson\t ...\tCookie (voice)\nWalt Dohrn\t ...\tRumpelstiltskin / Priest / Krekraw Ogre (voice)\nJane Lynch\t ...\tGretched (voice)\nLake Bell\t ...\tPatrol Witch / Wagon Witch #2 (voice)\nKathy Griffin\t ...\tDancing Witch / Wagon Witch #1 (voice)\nMary Kay Place\t ...\tGuard Witch (voice)\nKristen Schaal\t ...\tPumpkin Witch / Palace Witch (voice)\nMeredith Vieira\t ...\tBroomsy Witch (voice)\n\n\nVideo &amp; Audio Info.:-\n\nVideo:\n\nDuration : 1h 33mn\nBit rate : 2 246 Kbps\nWidth : 1 920 pixels\nHeight : 800 pixels\nFrame rate : 24.000 fps\nStream size : 1.46 GiB (66%)\n\nAudio :1\n\nFormat : AC-3\nCodec ID : A_AC3\nDuration : 1h 33mn\nBit rate mode : Constant\nBit rate : 640 Kbps\nChannel(s) : 6 channels\nChannel positions : Front: L C R, Side: L R, LFE\nSampling rate : 48.0 KHz\nBit depth : 16 bits\nCompression mode : Lossy\nStream size : 427 MiB (19%)\nLanguage : English\n\nAudio :2\n\nFormat : AC-3\nBit rate : 448 Kbps\nChannel(s) : 6 channels\nChannel positions : Front: L C R, Side: L R, LFE\nSampling rate : 48.0 KHz\nBit depth : 16 bits\nCompression mode : Lossy\nStream size : 299 MiB (13%)\nLanguage : Hindi\nSubtitle Language : English\n\n\nScreen Shoots:-\n\n\n\n\n\n\n\n\nNote:--\n\nHindi Audio Org. DVD Check The Sample Video In This Torrent","torrent":{"xt":"urn:btih:a232800e4168e49c42f7ee011d7eec857807a64d","amp;dn":"Shrek+Forever+After%282010%291080p+BDRip%5BHindi-Eng%5DAC3-DGrea8","amp;tr":["udp%3A%2F%2Ftracker.openbittorrent.com%3A80","udp%3A%2F%2Fopen.demonii.com%3A1337","udp%3A%2F%2Ftracker.coppersurfer.tk%3A6969","udp%3A%2F%2Fexodus.desync.com%3A6969"],"infoHash":"a232800e4168e49c42f7ee011d7eec857807a64d","infoHashBuffer":{"type":"Buffer","data":[162,50,128,14,65,104,228,156,66,247,238,1,29,126,236,133,120,7,166,77]},"announce":[],"urlList":[]}}